<?xml version="1.0" standalone="no"?>
<!DOCTYPE svg PUBLIC "-//W3C//DTD SVG 20010904//EN"
 "http://www.w3.org/TR/2001/REC-SVG-20010904/DTD/svg10.dtd">
<svg version="1.0" xmlns="http://www.w3.org/2000/svg"
 width="487.000000pt" height="487.000000pt" viewBox="0 0 487.000000 487.000000"
 preserveAspectRatio="xMidYMid meet">
<metadata>
Created by potrace 1.14, written by Peter Selinger 2001-2017
</metadata>
<g transform="translate(0.000000,487.000000) scale(0.100000,-0.100000)"
fill="#000000" stroke="none">
<path d="M2185 4863 c-654 -76 -1239 -395 -1638 -893 -215 -269 -383 -606
-466 -935 -17 -69 -26 -117 -46 -235 -28 -161 -27 -593 0 -732 3 -13 7 -39 10
-59 14 -107 75 -321 135 -474 74 -187 204 -421 307 -555 289 -375 641 -646
1053 -810 116 -46 302 -102 398 -120 34 -6 74 -13 89 -16 118 -23 219 -30 376
-28 185 2 360 11 412 20 17 3 37 6 45 8 12 2 82 17 145 31 156 34 401 125 559
208 228 119 400 249 604 455 375 378 617 873 678 1382 3 25 9 74 13 110 9 74
7 400 -3 475 -84 636 -316 1098 -772 1536 -326 314 -823 550 -1314 625 -41 6
-541 12 -585 7z m312 -169 c24 -68 47 -81 148 -83 l30 -1 -30 -26 c-16 -15
-40 -33 -52 -41 -27 -18 -29 -48 -8 -115 8 -27 10 -48 5 -48 -5 0 -32 14 -58
30 -27 17 -53 30 -59 30 -5 0 -33 -15 -63 -34 -30 -19 -56 -33 -58 -31 -2 2 3
28 12 58 9 30 16 60 16 67 0 6 -24 33 -52 60 l-53 50 45 1 c88 1 109 16 132
90 14 48 27 46 45 -7z m-1132 -301 c10 -26 21 -51 24 -55 9 -10 47 -16 106
-18 l50 -1 -29 -22 c-52 -38 -86 -76 -86 -94 0 -10 7 -39 15 -65 8 -27 10 -48
5 -48 -5 0 -32 14 -58 30 -27 17 -52 30 -54 30 -3 0 -32 -16 -64 -35 -31 -19
-59 -33 -61 -31 -2 1 6 32 18 67 l20 64 -58 52 -58 53 53 0 c28 0 53 -1 55 -2
1 -1 12 4 23 10 12 6 31 36 44 67 12 30 26 53 30 50 4 -2 15 -26 25 -52z
m2289 -47 c32 -71 33 -72 132 -75 l46 -1 -56 -46 c-31 -25 -56 -53 -56 -62 0
-9 7 -41 14 -69 8 -29 10 -53 5 -53 -4 0 -30 14 -56 30 -26 17 -52 30 -57 30
-6 0 -35 -16 -65 -35 -30 -19 -56 -33 -58 -31 -2 2 6 32 17 67 l19 64 -55 52
-56 53 49 0 c86 0 96 8 132 103 6 15 13 27 16 27 3 0 16 -24 29 -54z m-1019
-140 c793 -97 1405 -654 1575 -1435 28 -127 33 -178 33 -341 0 -194 -8 -288
-33 -401 -12 -52 -23 -101 -25 -110 -12 -57 -74 -220 -115 -306 -254 -534
-752 -905 -1355 -1008 -38 -6 -201 -17 -296 -19 -66 -2 -188 7 -269 19 -137
20 -388 103 -530 175 -448 226 -787 639 -923 1125 -53 188 -61 254 -61 500 0
255 15 357 85 569 193 590 685 1043 1289 1190 122 29 149 34 250 42 41 4 76 8
78 9 5 4 249 -3 297 -9z m-2077 -640 l19 -49 58 -3 c86 -5 92 -9 53 -41 -18
-16 -41 -35 -50 -43 -22 -17 -23 -42 -4 -103 7 -25 11 -48 9 -51 -3 -3 -31 9
-63 26 l-57 32 -57 -33 c-32 -18 -61 -30 -64 -27 -3 3 2 23 10 44 19 49 16
102 -8 119 -31 22 -76 65 -72 68 1 1 32 5 68 8 36 3 66 6 68 7 2 0 14 25 28
56 15 33 29 53 34 48 5 -5 17 -31 28 -58z m3791 -26 c25 -68 36 -76 106 -79
27 -2 53 -5 58 -8 4 -3 -13 -21 -38 -40 -55 -43 -61 -64 -41 -133 9 -30 14
-55 11 -58 -2 -2 -27 10 -55 27 -28 17 -58 31 -67 31 -9 0 -38 -14 -65 -31
-27 -17 -51 -29 -55 -26 -3 3 2 27 11 53 9 26 16 56 16 65 0 19 -35 59 -76 85
-13 9 -22 20 -19 24 2 4 31 10 64 13 33 3 64 8 70 11 6 4 20 34 32 66 12 33
23 60 24 60 1 0 12 -27 24 -60z m247 -939 c29 -66 38 -71 128 -73 l49 -1 -39
-33 c-21 -18 -42 -33 -46 -34 -4 0 -12 -9 -18 -20 -10 -19 -7 -42 16 -122 8
-26 -9 -22 -65 13 -55 33 -61 32 -129 -18 -18 -14 -36 -23 -39 -20 -3 3 2 35
10 72 l15 66 -26 24 c-15 12 -40 34 -57 49 l-30 25 50 1 c93 2 111 15 134 92
7 21 14 38 17 38 2 0 16 -27 30 -59z m-4256 -71 c20 -54 44 -83 67 -79 4 1 31
1 58 0 l50 -2 -53 -47 c-56 -50 -61 -65 -41 -135 6 -21 9 -42 7 -47 -2 -5 -28
7 -59 26 l-56 35 -58 -36 c-31 -20 -58 -35 -61 -33 -2 2 1 21 7 42 26 94 24
101 -36 146 -25 19 -42 37 -37 42 4 4 31 9 59 11 64 5 76 14 104 83 13 30 24
54 25 54 1 0 12 -27 24 -60z m3982 -1008 c20 -55 25 -57 117 -64 19 -2 36 -7
37 -13 2 -5 -17 -25 -41 -44 -50 -37 -55 -56 -31 -134 8 -26 10 -47 5 -47 -5
0 -32 14 -61 32 l-52 32 -59 -32 c-33 -18 -61 -31 -63 -29 -2 2 3 26 11 53 8
27 15 54 15 60 0 13 -45 62 -83 91 l-28 22 48 6 c106 14 112 18 138 103 10 34
25 23 47 -36z m-3656 -107 c29 -66 40 -72 134 -75 l45 -1 -29 -22 c-88 -65
-92 -76 -66 -166 12 -43 7 -49 -28 -29 -96 57 -82 55 -145 15 -32 -21 -57 -31
-57 -24 0 6 7 37 15 67 l15 55 -56 53 -57 52 51 1 c29 1 57 3 62 4 6 1 15 3
21 4 9 1 34 50 52 104 10 27 16 21 43 -38z m2927 -747 c6 -4 19 -7 27 -7 8 1
38 1 65 0 l50 -1 -59 -53 -58 -52 15 -59 c9 -33 14 -63 11 -67 -3 -5 -26 5
-53 21 -27 17 -55 30 -63 30 -7 0 -38 -15 -68 -34 -30 -19 -56 -34 -57 -32 -1
1 6 31 17 67 11 35 18 69 16 76 -3 6 -28 30 -56 52 -57 45 -55 48 33 54 32 2
59 6 61 8 2 2 15 31 30 64 l28 60 24 -59 c13 -33 30 -64 37 -68z m-2164 4 c1
-18 45 -32 102 -32 27 0 49 -3 49 -7 0 -5 -17 -20 -38 -35 -58 -41 -67 -65
-49 -129 9 -29 14 -56 11 -58 -3 -3 -17 2 -32 10 -15 9 -41 24 -58 34 l-31 19
-58 -37 c-32 -20 -60 -35 -62 -33 -2 1 4 25 12 52 23 76 20 89 -30 130 -25 20
-45 40 -45 45 0 5 19 9 43 9 73 0 95 20 128 110 l13 34 22 -49 c13 -28 23 -56
23 -63z m1066 -310 c2 -3 33 -7 67 -9 35 -3 65 -7 68 -10 3 -2 -19 -26 -49
-52 l-54 -48 20 -66 c12 -37 18 -67 14 -67 -4 0 -28 13 -54 30 -57 36 -72 37
-117 7 -38 -26 -70 -40 -70 -31 0 4 7 34 16 68 l16 61 -59 52 -58 53 55 1 c30
1 59 1 64 0 17 -3 55 42 62 73 13 61 26 61 51 0 12 -32 25 -59 28 -62z"/>
<path d="M2315 3904 c-193 -47 -318 -156 -385 -336 -12 -32 -27 -58 -33 -59
-65 -5 -177 -7 -427 -9 -163 0 -301 -4 -307 -8 -14 -9 -14 -1015 0 -1028 11
-12 296 -14 303 -3 9 15 15 178 17 494 l3 290 209 1 c116 1 215 -1 222 -3 7
-3 25 -28 41 -56 91 -161 240 -256 412 -262 105 -5 166 7 248 45 77 36 185
141 221 215 43 88 30 83 236 85 101 0 186 -3 189 -8 6 -10 -44 -81 -204 -287
-110 -142 -210 -279 -210 -289 0 -8 122 -92 183 -126 48 -27 60 -30 73 -19 19
15 214 307 214 319 0 5 3 10 8 12 4 2 32 41 62 88 29 46 104 161 165 255 135
206 200 314 192 321 -10 10 -119 14 -492 15 l-370 0 -40 77 c-65 125 -164 212
-291 256 -48 17 -200 30 -239 20z"/>
<path d="M3392 2481 c-19 -11 -20 -38 -21 -444 l-1 -358 -112 5 c-215 11 -218
12 -262 89 -63 107 -193 205 -316 238 -112 29 -270 5 -380 -59 -68 -39 -151
-129 -189 -205 -19 -37 -39 -71 -45 -75 -15 -9 -376 -12 -399 -3 -16 6 5 40
147 238 227 319 220 307 205 330 -15 25 -176 133 -197 133 -19 0 -32 -16 -355
-430 -130 -168 -264 -339 -296 -380 -32 -41 -72 -97 -90 -125 -28 -43 -29 -50
-15 -58 9 -5 226 -11 483 -13 256 -1 482 -3 501 -4 32 0 38 -5 67 -58 63 -115
160 -200 275 -243 64 -24 210 -31 283 -14 118 27 272 144 324 248 13 26 29 48
35 48 24 3 204 7 429 10 130 2 238 6 238 9 4 15 4 1098 1 1113 -4 15 -19 17
-151 17 -80 0 -152 -4 -159 -9z"/>
</g>
</svg>
